<?xml version="1.0" encoding="utf-8"?>
<!-- Generator: Adobe Illustrator 21.1.0, SVG Export Plug-In . SVG Version: 6.00 Build 0)  -->
<svg version="1.1" id="Слой_1" xmlns="http://www.w3.org/2000/svg" xmlns:xlink="http://www.w3.org/1999/xlink" x="0px" y="0px"
	 viewBox="0 0 129 129" style="enable-background:new 0 0 129 129;" xml:space="preserve">
<g>
	<g>
		<path d="M127.2,92.8L54.3,20L36.1,1.6c-2.3-2.2-5.9-2.2-8,0L1.9,28c-2.2,2.3-2.2,5.9,0,8l91.2,91.2c1.1,1.1,2.4,1.6,3.9,1.6
			l26.4,0.1c1.5,0,2.9-0.5,3.9-1.6c1.1-1.1,1.6-2.6,1.6-4.1l-0.1-26.5C128.9,95.3,128.2,93.9,127.2,92.8z M42.3,23.9L23.9,42.3
			L13.6,32L32,13.6C32,13.6,42.3,23.9,42.3,23.9z M117.7,117.6l-18.5-0.1L32,50.3L50.3,32l67.2,67.2
			C117.6,99.2,117.7,117.6,117.7,117.6z"/>
	</g>
</g>
</svg>
